<svg version="1.1"
      xmlns="http://www.w3.org/2000/svg"
      xmlns:xlink="http://www.w3.org/1999/xlink"  id="snapshot-52657" width="250" height="250" viewBox="0 0 250 250"><desc>This image was made on Patterninja.com</desc><defs>
<!-- image 40875 -->
<g id="transformed-40875" data-image="40875" transform="translate(-13.793841631306051, 221.1971224510843) rotate(37, 17.79384163130605, 27.80287754891569)"><g><svg version="1.1" width="35.5876832626121px" height="55.60575509783138px" viewBox="0 0 35.5876832626121 55.60575509783138"><g id="original-40875"><svg xmlns="http://www.w3.org/2000/svg" id="Layer_1" data-name="Layer 1" viewBox="0 0 224.97 350.44" xmlns:xlink="http://www.w3.org/1999/xlink" version="1.1" preserveAspectRatio="xMidYMid meet">
  <path d="M1009.63 1163s-15-23.24-13.8-28.41h-12.22a348.49 348.49 0 0 0 15.52 39.41" transform="translate(-875.46 -812.58)" fill="rgba(0,0,0, 0.15)" stroke="none"/>
  <path d="M1075.78 1026.81h-17.64v-12.18s.63-6.93-6.72-6.93h-91.84c5.55 82.1 24 127.63 24.07 127.68h19.85s18.74-14.51 26.09-26.68h20.57s27.72-.42 36.75-18.27a87.57 87.57 0 0 0 13.22-34.23c2.94-19.73-16.58-29.39-24.35-29.39zm4.75 29.31c-1.26 9.29-7.18 33.78-26.39 33.78h-13.31s12.25-24.91 13.94-43.71h18s9.03.64 7.76 9.93z" transform="translate(-875.46 -812.58)" fill="rgba(0,0,0, 0.15)" stroke="none"/>
  <path d="M882.61 1007.7s-6.51 0-7.14 7.35c0 0-2.56 76.46 55.62 120.33h38.6c-20.34-49.38-22.89-106.32-23.09-127.68z" transform="translate(-875.46 -812.58)" fill="rgba(0,0,0, 0.15)" stroke="none"/>
  <path d="M1000.25 812.58C979.56 823.65 892.91 853 877 973.84a180.28 180.28 0 0 0-1.54 21.33h71.24c.95-65.18 14.08-116.65 14.08-116.65a881.14 881.14 0 0 0-1.94 116.65h97.4c-.19-1.37-.4-2.7-.63-4-7.22-41.87-44.77-85.68-58.73-115" transform="translate(-875.46 -812.58)" fill="rgba(89, 155, 68, 0.15)" stroke="none"/>
</svg>
</g></svg></g></g>
<!-- /image 40875 -->

<!-- image 77267 -->
<g id="transformed-77267" data-image="77267" transform="translate(104.20615836869395, 90.19712245108431) rotate(37, 17.79384163130605, 27.80287754891569)"><g><svg version="1.1" width="35.5876832626121px" height="55.60575509783138px" viewBox="0 0 35.5876832626121 55.60575509783138"><g id="original-77267"><svg xmlns="http://www.w3.org/2000/svg" id="Layer_1" data-name="Layer 1" viewBox="0 0 224.97 350.44" xmlns:xlink="http://www.w3.org/1999/xlink" version="1.1" preserveAspectRatio="xMidYMid meet">
  <path d="M1009.63 1163s-15-23.24-13.8-28.41h-12.22a348.49 348.49 0 0 0 15.52 39.41" transform="translate(-875.46 -812.58)" fill="rgba(89, 155, 68, 0.15)" stroke="none"/>
  <path d="M1075.78 1026.81h-17.64v-12.18s.63-6.93-6.72-6.93h-91.84c5.55 82.1 24 127.63 24.07 127.68h19.85s18.74-14.51 26.09-26.68h20.57s27.72-.42 36.75-18.27a87.57 87.57 0 0 0 13.22-34.23c2.94-19.73-16.58-29.39-24.35-29.39zm4.75 29.31c-1.26 9.29-7.18 33.78-26.39 33.78h-13.31s12.25-24.91 13.94-43.71h18s9.03.64 7.76 9.93z" transform="translate(-875.46 -812.58)" fill="rgba(89, 155, 68, 0.15)" stroke="none"/>
  <path d="M882.61 1007.7s-6.51 0-7.14 7.35c0 0-2.56 76.46 55.62 120.33h38.6c-20.34-49.38-22.89-106.32-23.09-127.68z" transform="translate(-875.46 -812.58)" fill="rgba(89, 155, 68, 0.15)" stroke="none"/>
  <path d="M1000.25 812.58C979.56 823.65 892.91 853 877 973.84a180.28 180.28 0 0 0-1.54 21.33h71.24c.95-65.18 14.08-116.65 14.08-116.65a881.14 881.14 0 0 0-1.94 116.65h97.4c-.19-1.37-.4-2.7-.63-4-7.22-41.87-44.77-85.68-58.73-115" transform="translate(-875.46 -812.58)" fill="rgba(89, 155, 68, 0.15)" stroke="none"/>
</svg>
</g></svg></g></g>
<!-- /image 77267 -->
</defs><rect x="0" y="0" width="250" height="250" fill="rgba(255, 255, 255, 1)"></rect><use xlink:href="#transformed-40875" transform="translate(-250, -250)"></use><use xlink:href="#transformed-40875" transform="translate(0, -250)"></use><use xlink:href="#transformed-40875" transform="translate(250, -250)"></use><use xlink:href="#transformed-40875" transform="translate(-250, 0)"></use><use xlink:href="#transformed-40875" transform="translate(0, 0)"></use><use xlink:href="#transformed-40875" transform="translate(250, 0)"></use><use xlink:href="#transformed-40875" transform="translate(-250, 250)"></use><use xlink:href="#transformed-40875" transform="translate(0, 250)"></use><use xlink:href="#transformed-40875" transform="translate(250, 250)"></use><use xlink:href="#transformed-77267" transform="translate(-250, -250)"></use><use xlink:href="#transformed-77267" transform="translate(0, -250)"></use><use xlink:href="#transformed-77267" transform="translate(250, -250)"></use><use xlink:href="#transformed-77267" transform="translate(-250, 0)"></use><use xlink:href="#transformed-77267" transform="translate(0, 0)"></use><use xlink:href="#transformed-77267" transform="translate(250, 0)"></use><use xlink:href="#transformed-77267" transform="translate(-250, 250)"></use><use xlink:href="#transformed-77267" transform="translate(0, 250)"></use><use xlink:href="#transformed-77267" transform="translate(250, 250)"></use></svg>